<?xml version="1.0" encoding="UTF-8"?>
<!DOCTYPE svg PUBLIC "-//W3C//DTD SVG 1.1//EN" "http://www.w3.org/Graphics/SVG/1.1/DTD/svg11.dtd">
<!-- Creator: CorelDRAW -->
<svg xmlns="http://www.w3.org/2000/svg" xml:space="preserve" width="9.9982mm" height="10mm" version="1.1" style="shape-rendering:geometricPrecision; text-rendering:geometricPrecision; image-rendering:optimizeQuality; fill-rule:evenodd; clip-rule:evenodd"
viewBox="0 0 57.68 57.69"
 xmlns:xlink="http://www.w3.org/1999/xlink"
 xmlns:xodm="http://www.corel.com/coreldraw/odm/2003">
 <defs>
  <style type="text/css">
   <![CDATA[
    .fil0 {fill:black}
    .fil1 {fill:black}
   ]]>
  </style>
 </defs>
 <g id="Camada_x0020_1">
  <metadata id="CorelCorpID_0Corel-Layer"/>
  <g id="_2514413706848">
   <path class="fil0" d="M6.48 38.87l-5.15 3.14 1.57 1.48c0.59,0.56 14.89,14.07 26.2,14.07l0.54 0 5.79 -3.67c-1.22,-2.05 -1.93,-4.45 -1.95,-7.01l-2.42 1.53 -1.96 0c-7.37,0 -15.84,-4.53 -22.62,-9.52l0 -0.02z"/>
   <path class="fil0" d="M26.75 1.02l-1.01 -0.9 -24.42 14.97 1.57 1.48c0.59,0.56 14.89,13.95 26.2,13.95l0.54 0 26.71 -16.82 -5.87 0c-9.84,0 -23.57,-12.54 -23.7,-12.66l-0.02 -0.02z"/>
   <path class="fil0" d="M6.48 25.41l-5.15 3.14 1.57 1.48c0.59,0.56 14.89,13.95 26.2,13.95l0.54 0 5.27 -3.32c2.24,-4.53 6.89,-7.66 12.27,-7.72l9.18 -5.78 -5.87 0c-1.73,0 -3.58,-0.39 -5.44,-1.02l-13.99 8.81 -1.96 0c-7.37,0 -15.84,-4.53 -22.62,-9.52l0 -0.02z"/>
  </g>
  <path class="fil0" d="M0.12 57.69l-0.12 0 0 -0.12 0.12 0 0 0.12zm57.44 -57.69l0.12 0 0 0.12 -0.12 0 0 -0.12z"/>
  <path class="fil1" d="M47.34 36.98c5.43,0 9.83,4.4 9.83,9.83 0,5.43 -4.4,9.83 -9.83,9.83 -5.43,0 -9.83,-4.4 -9.83,-9.83 0,-5.43 4.4,-9.83 9.83,-9.83zm2.08 7.75l3.86 0 0 4.15 -3.86 0 0 3.86 -4.15 0 0 -3.86 -3.86 0 0 -4.15 3.86 0 0 -3.86 4.15 0 0 3.86z"/>
 </g>
</svg>
