<svg width="15" height="15" viewBox="0 0 15 15" fill="none" xmlns="http://www.w3.org/2000/svg">
<path fill-rule="evenodd" clip-rule="evenodd" d="M14.2362 0.710069H14.2669V0.740298H14.2362V0.710069ZM4.6533 11.8007C4.40045 11.8925 4.2549 11.8238 4.14756 11.5403L3.7031 10.3214C3.53453 9.86143 4.19366 9.55491 4.4159 10.1528L4.8143 11.2489C4.89896 11.4866 4.89103 11.7089 4.6533 11.8007ZM5.90283 4.82595C6.01017 4.71861 6.09401 4.75718 6.32419 4.84902C6.56948 4.94842 6.68437 5.01002 6.78415 4.94085C7.037 4.77228 7.28988 4.47334 7.45089 4.62679C7.53517 4.70314 7.49702 4.91024 7.49702 5.01002C7.49702 5.14041 7.52723 5.26286 7.50455 5.39325L7.56582 5.43939L11.2217 4.10559L10.4628 3.35423C10.072 3.73785 9.45136 3.73785 9.06774 3.36216C8.6845 2.98648 8.69247 2.37342 9.07571 1.98979L7.79562 0.732731C7.75707 0.694558 7.62704 0.694558 7.58848 0.732731L2.27707 5.96775L2.85197 6.53508C3.00542 6.68853 3.0893 6.87257 2.9283 7.02565C2.76011 7.19421 2.61423 7.18664 2.43017 7.00258L1.8247 6.41225L0.644709 7.63867C0.598599 7.67685 0.598599 7.80727 0.644709 7.84544L0.721038 7.92214L5.71836 6.10571C5.7947 5.95227 5.99427 5.75308 6.07062 5.63818C6.13223 5.5384 6.07817 5.54598 6.01732 5.36985L5.88696 5.00172C5.8639 4.93293 5.84082 4.8868 5.90999 4.81802L5.90283 4.82595ZM7.77288 8.11414C7.93351 8.05254 8.00269 8.12963 8.19432 8.33637C8.40106 8.55861 8.47776 8.6739 8.62365 8.65084C8.96834 8.58924 9.36676 8.39798 9.45898 8.64328C9.50471 8.76573 9.36675 8.95737 9.32101 9.06471C9.25941 9.20266 9.22875 9.34061 9.13691 9.46307L9.53531 10.1834C9.60448 10.6049 8.75372 10.2602 8.59272 10.3059C8.52355 10.329 8.1633 10.835 8.04085 10.8808C7.73433 10.9881 7.75742 10.6585 7.69582 10.329C7.68826 10.2753 7.66517 10.1373 7.65005 10.0916C7.58844 9.83082 6.81444 9.81569 6.84505 9.50124C6.86811 9.31717 7.35869 9.15655 7.53482 9.04127C7.64253 8.96492 7.58846 8.95697 7.61152 8.73474L7.65765 8.29027C7.66521 8.20599 7.67311 8.15232 7.77251 8.11414H7.77288ZM2.21587 12.7433L2.91316 14.6596C2.93622 14.7208 3.06667 14.782 3.1279 14.7589L5.05923 14.0537L4.7221 13.1186C4.55353 12.6587 5.21228 12.3521 5.43489 12.9501L5.74899 13.8084L13.7661 10.8883C13.8277 10.8653 13.889 10.7349 13.8659 10.6737L13.1685 8.75781C12.5861 8.97211 11.9421 8.68107 11.7353 8.10621C11.5282 7.53134 11.8348 6.89526 12.4176 6.68058L11.7198 4.76472C11.6972 4.70311 11.5668 4.6419 11.5055 4.66495L3.48843 7.58538L3.80253 8.44374C3.8872 8.67354 3.87926 8.90332 3.6419 8.99554C3.38868 9.08738 3.24314 9.0182 3.1358 8.73474L2.8062 7.83068L0.874877 8.53594C0.813648 8.55862 0.752461 8.68901 0.775516 8.75024L1.47281 10.6665C2.05523 10.4518 2.69889 10.7428 2.906 11.3177C3.11274 11.8925 2.80619 12.529 2.22377 12.7358L2.21587 12.7433ZM0.236934 14.7593H0.206299V14.7287H0.236934V14.7593Z" fill="black"/>
</svg>
