<?xml version="1.0" encoding="UTF-8"?>
<!DOCTYPE svg PUBLIC "-//W3C//DTD SVG 1.1//EN" "http://www.w3.org/Graphics/SVG/1.1/DTD/svg11.dtd">
<!-- Creator: CorelDRAW -->
<svg xmlns="http://www.w3.org/2000/svg" xml:space="preserve" width="9.9982mm" height="10mm" version="1.1" style="shape-rendering:geometricPrecision; text-rendering:geometricPrecision; image-rendering:optimizeQuality; fill-rule:evenodd; clip-rule:evenodd"
viewBox="0 0 69.09 69.1"
 xmlns:xlink="http://www.w3.org/1999/xlink"
 xmlns:xodm="http://www.corel.com/coreldraw/odm/2003">
 <defs>
  <style type="text/css">
   <![CDATA[
    .fil1 {fill:black}
    .fil2 {fill:black}
    .fil0 {fill:black}
   ]]>
  </style>
 </defs>
 <g id="Camada_x0020_1">
  <metadata id="CorelCorpID_0Corel-Layer"/>
  <g id="_2514413683184">
   <path class="fil0" d="M53.55 45.56c6.5,0 11.77,5.27 11.77,11.77 0,6.5 -5.27,11.77 -11.77,11.77 -6.5,0 -11.77,-5.27 -11.77,-11.77 0,-6.5 5.27,-11.77 11.77,-11.77zm2.49 9.28l4.62 0 0 4.97 -4.62 0 0 4.62 -4.97 0 0 -4.62 -4.62 0 0 -4.97 4.62 0 0 -4.62 4.97 0 0 4.62z"/>
   <path class="fil1" d="M0.14 69.1l-0.14 0 0 -0.14 0.14 0 0 0.14zm68.8 -69.1l0.14 0 0 0.14 -0.14 0 0 -0.14z"/>
   <path class="fil2" d="M34.54 7.74c-6.86,-0.23 -14.35,3.51 -18.34,9.1 -9.5,13.33 -0.36,23.88 -9.15,32.21 -1.28,1.21 -2.21,1.33 -2.89,3.13 -1.6,4.27 2.14,5.42 5.75,5.47 8.99,0.1 18.02,0.08 27.04,0.04l-0 -0.35c0,-9.17 7.44,-16.61 16.61,-16.61 1.69,0 3.33,0.25 4.86,0.72 -1.21,-7.13 0.38,-16.33 -5.52,-24.61 -4.01,-5.62 -11.46,-9.33 -18.35,-9.1zm-5.31 59.19c2.77,2.66 7.74,3.14 10.73,-0.04 -1.15,-1.64 -2.02,-3.49 -2.52,-5.49l-10.6 -0.03c0.35,2.59 0.85,4.07 2.4,5.56zm1.43 -62.76c2.66,-0.49 5.09,-0.36 7.65,-0.08 0.43,-4.36 -6.68,-6.48 -7.65,0.08z"/>
  </g>
 </g>
</svg>
