<?xml version="1.0" encoding="UTF-8"?>
<!DOCTYPE svg PUBLIC "-//W3C//DTD SVG 1.1//EN" "http://www.w3.org/Graphics/SVG/1.1/DTD/svg11.dtd">
<!-- Creator: CorelDRAW -->
<svg xmlns="http://www.w3.org/2000/svg" xml:space="preserve" width="10.0001mm" height="10.0001mm" version="1.1" style="shape-rendering:geometricPrecision; text-rendering:geometricPrecision; image-rendering:optimizeQuality; fill-rule:evenodd; clip-rule:evenodd"
viewBox="0 0 141.05 141.05"
 xmlns:xlink="http://www.w3.org/1999/xlink"
 xmlns:xodm="http://www.corel.com/coreldraw/odm/2003">
 <defs>
  <style type="text/css">
   <![CDATA[
    .fil1 {fill:black}
    .fil0 {fill:black}
   ]]>
  </style>
 </defs>
 <g id="Camada_x0020_1">
  <metadata id="CorelCorpID_0Corel-Layer"/>
  <g id="_2514418813312">
   <path class="fil0" d="M117.02 93c13.27,0 24.03,10.76 24.03,24.03 0,13.27 -10.76,24.03 -24.03,24.03 -13.27,0 -24.03,-10.76 -24.03,-24.03 0,-13.27 10.76,-24.03 24.03,-24.03zm5.08 18.95l9.43 0 0 10.15 -9.43 0 0 9.43 -10.15 0 0 -9.43 -9.43 0 0 -10.15 9.43 0 0 -9.43 10.15 0 0 9.43z"/>
   <g>
    <path class="fil1" d="M0.31 141.05l-0.29 0 0 -0.29 0.29 0 0 0.29zm140.44 -141.05l0.29 0 0 0.29 -0.29 0 0 -0.29z"/>
    <path class="fil1" d="M0.05 120.49c-0.08,13.55 4.01,20.08 18.19,20.2 25.7,0 50.03,0.39 74.87,0.35 -5.08,-5.05 -8.56,-11.71 -9.63,-19.14 -0.59,2.48 -2.76,4.33 -5.33,4.33l-13.54 0c-3.02,0 -5.49,-2.56 -5.49,-5.69l0 -14.03c0,-3.13 2.47,-5.69 5.49,-5.69l13.54 0c3.02,0 5.49,2.56 5.49,5.69l0 4.61c2.79,-15.91 16.68,-28.01 33.39,-28.01 9.29,0 17.71,3.74 23.84,9.8l0.19 -49.83 -141 0c-0,25.8 -0.01,51.6 -0.01,77.41zm8.61 -120.07c-5.08,0.5 -8.59,5.88 -8.66,9.24l0.05 19.22 140.4 0c0.15,-4.68 0.59,-15.22 -0.65,-18.8 -2.54,-7.35 -9.78,-10.08 -16.68,-10.08 -3.1,0 -5.47,-0.02 -8.57,-0l0 13.86c0,3.9 -3.08,7.1 -6.85,7.1l-0 0c-3.77,0 -6.85,-3.19 -6.85,-7.1l0 -13.78c-4.31,0.25 -11.15,-0.06 -14.24,-0.08l-5.44 0.01 -20.61 -0 -5.78 -0.01 -18.62 0.01 0 13.2c0,3.9 -3.08,7.1 -6.85,7.1 -3.77,0 -6.85,-3.19 -6.85,-7.1l0 -13.09 -13.81 0.3zm14.23 57.16l13.54 0c3.02,0 5.49,2.56 5.49,5.69l0 14.03c0,3.13 -2.47,5.69 -5.49,5.69l-13.54 0c-3.01,0 -5.49,-2.56 -5.49,-5.69l0 -14.03c0,-3.13 2.47,-5.69 5.49,-5.69zm0 43.25l13.54 0c3.02,0 5.49,2.56 5.49,5.69l0 14.03c0,3.13 -2.47,5.69 -5.49,5.69l-13.54 0c-3.01,0 -5.49,-2.56 -5.49,-5.69l0 -14.03c0,-3.13 2.47,-5.69 5.49,-5.69zm41.72 -43.25l13.54 0c3.02,0 5.49,2.56 5.49,5.69l0 14.03c0,3.13 -2.47,5.69 -5.49,5.69l-13.54 0c-3.02,0 -5.49,-2.56 -5.49,-5.69l0 -14.03c0,-3.13 2.47,-5.69 5.49,-5.69zm40.15 0l13.54 0c3.02,0 5.49,2.56 5.49,5.69l0 14.03c0,3.13 -2.47,5.69 -5.49,5.69l-13.54 0c-3.02,0 -5.49,-2.56 -5.49,-5.69l0 -14.03c0,-3.13 2.47,-5.69 5.49,-5.69z"/>
   </g>
  </g>
 </g>
</svg>
