<svg width="15" height="15" viewBox="0 0 15 15" fill="none" xmlns="http://www.w3.org/2000/svg">
<path fill-rule="evenodd" clip-rule="evenodd" d="M0.285921 14.7695H0.256836V14.7401H0.285921V14.7695ZM14.2959 0.69873H14.325V0.727852H14.2959V0.69873Z" fill="black"/>
<path fill-rule="evenodd" clip-rule="evenodd" d="M13.2019 5.17559C13.7722 5.3245 14.1959 5.84534 14.1959 6.45989V11.7425C14.1959 12.472 13.5987 13.0695 12.8693 13.0695H12.1636V14.0594C12.1636 14.3349 12.0174 14.5711 11.7702 14.6932C11.5234 14.8157 11.2467 14.7892 11.0275 14.6225L9.80102 13.6893L8.98617 13.0695H5.97011L7.43881 11.9519H11.2116C11.2289 11.9519 11.246 11.9519 11.263 11.9515V11.9512C12.1988 11.9274 12.9785 11.2512 13.1614 10.3619V10.3615L13.1705 10.3131L13.1709 10.3127L13.1788 10.264V10.2636L13.186 10.2145V10.2141L13.1916 10.1646L13.1958 10.1147L13.1962 10.1143L13.1992 10.064V10.0637L13.2011 10.013L13.2015 10.0126L13.2019 9.9616V5.17559ZM1.71283 0.69873H11.2116C11.9414 0.69873 12.5386 1.29592 12.5386 2.02537V9.9616C12.5386 10.6914 11.9414 11.2886 11.2116 11.2886H7.21356C7.2026 11.2977 7.19164 11.3064 7.1803 11.3151L5.55813 12.5491L4.33167 13.4822C4.11245 13.6489 3.83581 13.6754 3.58901 13.5529C3.34221 13.4305 3.19556 13.1946 3.19556 12.9191V11.2886H1.71283C0.983003 11.2886 0.38623 10.6914 0.38623 9.9616V2.02537C0.38623 1.29592 0.983003 0.69873 1.71283 0.69873ZM3.77193 6.77964H6.51095C6.97848 6.77964 7.36134 7.16212 7.36134 7.63003C7.36134 8.09794 6.97848 8.48042 6.51095 8.48042H3.77193C3.30403 8.48042 2.92154 8.09794 2.92154 7.63003C2.92154 7.16212 3.30403 6.77964 3.77193 6.77964ZM3.77193 3.68382H9.08557C9.55347 3.68382 9.93596 4.06631 9.93596 4.53421C9.93596 5.00212 9.55347 5.38461 9.08557 5.38461H3.77193C3.30403 5.38461 2.92154 5.00212 2.92154 4.53421C2.92154 4.06631 3.30403 3.68382 3.77193 3.68382Z" fill="black"/>
</svg>
