<?xml version="1.0" encoding="UTF-8"?>
<!DOCTYPE svg PUBLIC "-//W3C//DTD SVG 1.1//EN" "http://www.w3.org/Graphics/SVG/1.1/DTD/svg11.dtd">
<!-- Creator: CorelDRAW -->
<svg xmlns="http://www.w3.org/2000/svg" xml:space="preserve" width="9.9997mm" height="10mm" version="1.1" style="shape-rendering:geometricPrecision; text-rendering:geometricPrecision; image-rendering:optimizeQuality; fill-rule:evenodd; clip-rule:evenodd"
viewBox="0 0 104.04 104.04"
 xmlns:xlink="http://www.w3.org/1999/xlink"
 xmlns:xodm="http://www.corel.com/coreldraw/odm/2003">
 <defs>
  <style type="text/css">
   <![CDATA[
    .fil0 {fill:black}
   ]]>
  </style>
 </defs>
 <g id="Camada_x0020_1">
  <metadata id="CorelCorpID_0Corel-Layer"/>
  <g id="_2478248008240">
   <path class="fil0" d="M18.58 44.36c0,8 2.42,15.07 7.38,21.19 0.31,0.41 0.53,0.69 0.85,1.07l1.35 1.45c3.86,3.86 8.45,6.69 13.69,8.41 1.45,0.47 4.62,1.32 6.34,1.32l0 11.33 -7.13 0c-5.34,0 -4.93,7.5 -0.53,7.5l22.98 0c1.41,0 2.57,-1 3.08,-2.17 1.22,-2.92 -1.01,-5.34 -3.58,-5.34l-7.13 0 0 -11.33c5.34,0 14.66,-4.46 18.52,-8.32 1.66,-1.66 2.23,-2.04 3.8,-4.02 1.57,-1.98 3.39,-4.77 4.4,-7.13 1.95,-4.58 2.92,-8.19 2.92,-13.97 0,-4.36 -7.28,-4.96 -7.5,0.16 -0.13,2.54 -0.22,4.21 -0.75,6.37 -0.47,1.88 -1.16,3.61 -1.92,5.24l-1.35 2.32c-1.45,2.2 -1.73,2.26 -3.11,4.02 -1.19,1.51 -4.46,3.73 -6.18,4.77 -8.88,5.27 -21.75,3.95 -29.41,-2.86 -0.35,-0.31 -0.5,-0.56 -0.88,-0.88 -1.88,-1.57 -3.67,-3.8 -4.83,-5.96 -2.32,-4.36 -3.39,-7.6 -3.48,-12.9 -0.1,-5.37 -7.5,-4.71 -7.5,-0.35l-0 0.06zm14.79 -18.46l0 18.8c0,2.76 0.72,5.4 1.57,7.31 1.79,3.99 4.87,7.38 8.82,9.29 5.15,2.51 11.21,2.48 16.39,0.06 1.91,-0.88 3.77,-2.35 5.24,-3.83 0.72,-0.69 1.44,-1.66 2.04,-2.51 1.92,-2.76 3.23,-6.59 3.23,-10.36l0 -18.8c0,-9.89 -8.51,-18.46 -17.77,-18.46 -6,0 -10.17,1.57 -14.22,5.62 -2.73,2.7 -5.27,7.47 -5.27,12.84l-0.03 0.03zm16.23 1.08c0,-2 1.64,-3.64 3.64,-3.64l9.8 0c-1.19,-4.56 -5.41,-8.64 -10.15,-8.64 -3.9,0 -6.31,0.74 -9.08,3.5 -1.91,1.9 -3.13,5 -3.13,7.68l0 2.95 -0.03 0.03 0 15.85c0,1.43 0.35,3.04 0.94,4.34 1.08,2.42 2.95,4.54 5.36,5.71 3.18,1.55 6.94,1.49 10.13,0.01 1.12,-0.52 2.3,-1.51 3.16,-2.38l0.12 -0.11c0.36,-0.35 0.81,-0.99 1.09,-1.41 0.71,-1.02 1.27,-2.3 1.59,-3.61l-9.8 0c-2,0 -3.64,-1.64 -3.64,-3.64 0,-2 1.64,-3.64 3.64,-3.64l10.14 0 0 -9.36 -10.14 0c-2,0 -3.64,-1.64 -3.64,-3.64z"/>
   <polygon class="fil0" points="0.22,104.04 -0,104.04 -0,103.82 0.22,103.82 "/>
   <polygon class="fil0" points="103.82,0 104.04,0 104.04,0.22 103.82,0.22 "/>
  </g>
 </g>
</svg>
