<?xml version="1.0" encoding="UTF-8"?>
<!DOCTYPE svg PUBLIC "-//W3C//DTD SVG 1.1//EN" "http://www.w3.org/Graphics/SVG/1.1/DTD/svg11.dtd">
<!-- Creator: CorelDRAW -->
<svg xmlns="http://www.w3.org/2000/svg" xml:space="preserve" width="10mm" height="10mm" version="1.1" style="shape-rendering:geometricPrecision; text-rendering:geometricPrecision; image-rendering:optimizeQuality; fill-rule:evenodd; clip-rule:evenodd"
viewBox="0 0 83.81 83.81"
 xmlns:xlink="http://www.w3.org/1999/xlink"
 xmlns:xodm="http://www.corel.com/coreldraw/odm/2003">
 <defs>
  <style type="text/css">
   <![CDATA[
    .fil0 {fill:black}
    .fil1 {fill:black}
   ]]>
  </style>
 </defs>
 <g id="Camada_x0020_1">
  <metadata id="CorelCorpID_0Corel-Layer"/>
  <g id="_2514418824928">
   <path class="fil0" d="M0.18 83.81l-0.17 0 0 -0.17 0.17 0 0 0.17zm83.44 -83.81l0.17 0 0 0.17 -0.17 0 0 -0.17z"/>
   <path class="fil1" d="M6.2 44.56l19.09 0 -0.02 0.77c0,9.18 7.45,16.63 16.63,16.63 9.18,0 16.63,-7.45 16.63,-16.63l-0.02 -0.77 19.09 0 -8.46 -17.11 -8.65 0 0 -6.49 5.45 0 6.2 0 11.67 23.61 0 35.71 -83.81 0 0 -35.71 11.67 -23.61 6.2 0 5.45 0 0 6.49 -8.65 0 -8.46 17.11zm25.2 -41.02l21.02 0 0 28.59 9.45 0 -9.99 12.16 -9.98 12.17 -9.98 -12.17 -9.99 -12.16 9.45 0 0 -28.59z"/>
  </g>
 </g>
</svg>
