<svg width="15" height="15" viewBox="0 0 15 15" fill="none" xmlns="http://www.w3.org/2000/svg">
<path fill-rule="evenodd" clip-rule="evenodd" d="M0.810301 14.7696H0.779297V14.739H0.810301V14.7696Z" fill="black"/>
<path fill-rule="evenodd" clip-rule="evenodd" d="M14.8191 0.69873H14.8501V0.729734H14.8191V0.69873Z" fill="black"/>
<path fill-rule="evenodd" clip-rule="evenodd" d="M0.810301 14.7695H0.779297V14.7389H0.810301V14.7695ZM14.8191 0.69873H14.8497V0.729734H14.8191V0.69873Z" fill="black"/>
<path fill-rule="evenodd" clip-rule="evenodd" d="M7.38751 8.7057C5.32729 8.78582 3.90017 7.53555 3.36423 6.02563C2.36832 3.21819 4.84995 0.269774 7.82141 0.789837C8.84945 0.969743 9.46777 1.41688 10.0105 1.9513C10.5472 2.47968 11.0151 3.21855 11.136 4.25944C11.2997 5.66202 10.7815 6.29209 10.5672 6.83634C9.81392 6.21688 8.82331 6.29585 8.0315 7.0922C7.54054 7.58581 7.32628 8.16031 7.38751 8.7057Z" fill="black"/>
<path fill-rule="evenodd" clip-rule="evenodd" d="M2.15376 12.8038C2.15187 12.7411 2.15187 12.6738 2.15376 12.602C2.232 9.76584 3.58474 9.60824 4.57044 8.65051C5.44011 9.21139 6.50024 9.48125 7.62049 9.39697L7.62655 9.3966C7.78037 9.65021 8.00524 9.88415 8.30118 10.0837L8.45347 10.1865L8.45612 10.1918C8.74375 10.7395 9.10471 11.0437 9.7151 11.1457C9.94377 11.1843 10.0447 11.1733 10.2125 11.3468C10.2922 11.4292 10.3852 11.5161 10.468 11.6038C10.5058 11.9398 10.4929 12.4455 10.4861 12.8205V14.7216H2.15376V12.8038Z" fill="black"/>
<path fill-rule="evenodd" clip-rule="evenodd" d="M11.1654 14.7389C11.1654 14.2324 11.2361 11.541 11.1261 11.2946C11.1015 11.2391 10.7889 10.9306 10.7183 10.8577C10.0459 10.1626 9.57157 10.8018 9.0791 9.86482L10.8321 8.16138C11.1042 8.28648 11.3884 8.56353 11.4564 8.98154C11.512 9.32283 11.4009 9.31564 11.5887 9.56168C11.6602 9.65579 11.848 9.81455 11.9493 9.91055C12.4497 10.3864 12.8772 10.8539 13.3708 11.3392C14.1509 12.1065 14.5171 12.2576 13.7808 12.9799C13.1655 13.5831 12.876 12.9852 12.1715 12.3291L12.1674 14.7215L11.1654 14.7389Z" fill="black"/>
<path fill-rule="evenodd" clip-rule="evenodd" d="M8.55272 9.39552C7.92759 8.88755 7.92117 8.20117 8.53043 7.58851C9.1548 6.96073 9.85026 6.96829 10.3658 7.63387L8.55272 9.39552Z" fill="black"/>
</svg>
